<?xml version="1.0" encoding="UTF-8" standalone="no"?>
<!-- Generator: Adobe Illustrator 13.0.2, SVG Export Plug-In . SVG Version: 6.00 Build 14948)  -->

<svg
   xmlns:dc="http://purl.org/dc/elements/1.1/"
   xmlns:cc="http://creativecommons.org/ns#"
   xmlns:rdf="http://www.w3.org/1999/02/22-rdf-syntax-ns#"
   xmlns:svg="http://www.w3.org/2000/svg"
   xmlns="http://www.w3.org/2000/svg"
   xmlns:xlink="http://www.w3.org/1999/xlink"
   xmlns:sodipodi="http://sodipodi.sourceforge.net/DTD/sodipodi-0.dtd"
   xmlns:inkscape="http://www.inkscape.org/namespaces/inkscape"
   id="Foreground"
   enable-background="new 0 0 16 16"
   xml:space="preserve"
   height="21"
   viewBox="0 0 18.181818 15.272727"
   width="25"
   version="1.0"
   y="0px"
   x="0px"
   inkscape:version="0.48.3.1 r9886"
   sodipodi:docname="checkbox-off.svg"><sodipodi:namedview
   pagecolor="#ffffff"
   bordercolor="#666666"
   borderopacity="1"
   objecttolerance="10"
   gridtolerance="10"
   guidetolerance="10"
   inkscape:pageopacity="0"
   inkscape:pageshadow="2"
   inkscape:window-width="1600"
   inkscape:window-height="845"
   id="namedview20"
   showgrid="false"
   inkscape:zoom="13.998939"
   inkscape:cx="41.286602"
   inkscape:cy="13.511382"
   inkscape:window-x="0"
   inkscape:window-y="0"
   inkscape:window-maximized="1"
   inkscape:current-layer="Foreground"
   inkscape:snap-global="false"><inkscape:grid
     type="xygrid"
     id="grid3066"
     empspacing="8"
     visible="true"
     enabled="true"
     snapvisiblegridlinesonly="true" /></sodipodi:namedview><metadata
   id="metadata2399"><rdf:RDF><cc:Work
       rdf:about=""><dc:format>image/svg+xml</dc:format><dc:type
         rdf:resource="http://purl.org/dc/dcmitype/StillImage" /><dc:title /></cc:Work></rdf:RDF></metadata><defs
   id="defs2397"><linearGradient
     id="linearGradient3815"><stop
       id="stop3817"
       offset="0"
       style="stop-color:#e6e6e6;stop-opacity:1;" /><stop
       id="stop3819"
       offset="1"
       style="stop-color:#ffffff;stop-opacity:1;" /></linearGradient><linearGradient
     inkscape:collect="always"
     id="linearGradient3833"><stop
       style="stop-color:#000000;stop-opacity:1;"
       offset="0"
       id="stop3836" /><stop
       style="stop-color:#000000;stop-opacity:0;"
       offset="1"
       id="stop3838" /></linearGradient><linearGradient
     id="linearGradient3808"><stop
       style="stop-color:#d2d2d2;stop-opacity:1;"
       offset="0"
       id="stop3810" /><stop
       style="stop-color:#f0f0f0;stop-opacity:1;"
       offset="1"
       id="stop3812" /></linearGradient><linearGradient
     id="linearGradient3786"><stop
       id="stop3788"
       offset="0"
       style="stop-color:#1e1e1e;stop-opacity:1;" /><stop
       id="stop3790"
       offset="1"
       style="stop-color:#505050;stop-opacity:1;" /></linearGradient><filter
     id="filter16494-4"
     width="1.4198"
     y="-0.20904"
     x="-0.20990001"
     height="1.4181"
     color-interpolation-filters="sRGB"><feGaussianBlur
       id="feGaussianBlur16496-8"
       stdDeviation="1.3282637" /></filter><radialGradient
     id="radialGradient16504-1"
     gradientUnits="userSpaceOnUse"
     cy="5.8190999"
     cx="7.6582999"
     gradientTransform="matrix(1.0474,0,0,1.0517,-0.36326,-0.42032)"
     r="8.6928997"><stop
       id="stop16500-8"
       style="stop-color:#7b7b7b"
       offset="0" /><stop
       id="stop16502-0"
       style="stop-color:#101010"
       offset="1" /></radialGradient><filter
     id="filter16524-9"
     width="1.426"
     y="-0.21306001"
     x="-0.21298"
     height="1.4261"
     color-interpolation-filters="sRGB"><feGaussianBlur
       id="feGaussianBlur16526-0"
       stdDeviation="0.71020915" /></filter><clipPath
     clipPathUnits="userSpaceOnUse"
     id="clipPath2849"><rect
       ry="2"
       rx="2"
       y="1"
       x="1"
       height="20"
       width="20"
       id="rect2851"
       style="fill:#ffffff;fill-opacity:1;fill-rule:evenodd;stroke:none;display:inline" /></clipPath><filter
     color-interpolation-filters="sRGB"
     inkscape:collect="always"
     id="filter3194"
     x="-0.18000001"
     width="1.36"
     y="-0.18000001"
     height="1.36"><feGaussianBlur
       inkscape:collect="always"
       stdDeviation="1.2"
       id="feGaussianBlur3196" /></filter><linearGradient
     gradientTransform="matrix(0.60300087,0,0,0.60300087,1.014274,0.52897524)"
     inkscape:collect="always"
     xlink:href="#linearGradient3831"
     id="linearGradient3845"
     x1="11"
     y1="19.5"
     x2="21"
     y2="19.5"
     gradientUnits="userSpaceOnUse"
     spreadMethod="reflect" /><linearGradient
     id="linearGradient3831"><stop
       style="stop-color:#ffffff;stop-opacity:1;"
       offset="0"
       id="stop3833" /><stop
       id="stop3821"
       offset="0.75"
       style="stop-color:#ffffff;stop-opacity:0.49803922;" /><stop
       style="stop-color:#ffffff;stop-opacity:0;"
       offset="1"
       id="stop3835" /></linearGradient><linearGradient
     gradientTransform="matrix(0.60300087,0,0,0.60300087,1.014274,0.52897524)"
     y2="16"
     x2="10"
     y1="1"
     x1="10"
     gradientUnits="userSpaceOnUse"
     id="linearGradient3101"
     xlink:href="#linearGradient3823"
     inkscape:collect="always" /><linearGradient
     id="linearGradient3823"><stop
       id="stop3825"
       offset="0"
       style="stop-color:#ffffff;stop-opacity:1;" /><stop
       id="stop3829"
       offset="1"
       style="stop-color:#ffffff;stop-opacity:0;" /></linearGradient><linearGradient
     inkscape:collect="always"
     xlink:href="#linearGradient3786"
     id="linearGradient3181"
     x1="-3.0607977"
     y1="27.258198"
     x2="-3.0607977"
     y2="7.2536583"
     gradientUnits="userSpaceOnUse"
     gradientTransform="matrix(0.60300087,0,0,0.60300087,7.7192657,-3.2447235)" /><linearGradient
     id="linearGradient3257"><stop
       style="stop-color:#a50000;stop-opacity:1;"
       offset="0"
       id="stop3259" /><stop
       style="stop-color:#e73800;stop-opacity:1;"
       offset="1"
       id="stop3261" /></linearGradient><linearGradient
     inkscape:collect="always"
     xlink:href="#linearGradient3786"
     id="linearGradient3796"
     gradientUnits="userSpaceOnUse"
     gradientTransform="matrix(0.87272718,0,0,0.87272718,11.740542,-3.425334)"
     x1="-3.0607977"
     y1="27.258198"
     x2="-3.0607977"
     y2="7.2536583" /><linearGradient
     inkscape:collect="always"
     xlink:href="#linearGradient3786"
     id="linearGradient3800"
     gradientUnits="userSpaceOnUse"
     gradientTransform="matrix(0.87272718,0,0,0.87272718,11.740542,-3.425334)"
     x1="-3.0607977"
     y1="27.258198"
     x2="-3.0607977"
     y2="7.2536583" /><linearGradient
     inkscape:collect="always"
     xlink:href="#linearGradient3786"
     id="linearGradient3805"
     gradientUnits="userSpaceOnUse"
     gradientTransform="matrix(1.1999999,0,0,1.1999999,16.143245,-4.7098343)"
     x1="-3.0607977"
     y1="27.258198"
     x2="-3.0607977"
     y2="7.2536583" /><linearGradient
     inkscape:collect="always"
     xlink:href="#linearGradient3808"
     id="linearGradient3814"
     gradientUnits="userSpaceOnUse"
     gradientTransform="matrix(0.60300087,0,0,0.60300087,7.7192657,-3.2447235)"
     x1="-3.0607977"
     y1="27.258198"
     x2="-3.0607977"
     y2="7.2536583" /><linearGradient
     inkscape:collect="always"
     xlink:href="#linearGradient3786"
     id="linearGradient3818"
     gradientUnits="userSpaceOnUse"
     gradientTransform="matrix(0.87272718,0,0,0.87272718,11.740542,-3.425334)"
     x1="-3.0607977"
     y1="27.258198"
     x2="-3.0607977"
     y2="7.2536583" /><linearGradient
     inkscape:collect="always"
     xlink:href="#linearGradient3786"
     id="linearGradient3822"
     gradientUnits="userSpaceOnUse"
     gradientTransform="matrix(1.1999999,0,0,1.1999999,16.143245,-4.7098343)"
     x1="-3.0607977"
     y1="27.258198"
     x2="-3.0607977"
     y2="7.2536583" /><linearGradient
     inkscape:collect="always"
     xlink:href="#linearGradient3786"
     id="linearGradient3826"
     gradientUnits="userSpaceOnUse"
     gradientTransform="matrix(0.87272718,0,0,0.87272718,11.740542,-3.425334)"
     x1="-3.0607977"
     y1="27.258198"
     x2="-3.0607977"
     y2="7.2536583" /><linearGradient
     inkscape:collect="always"
     xlink:href="#linearGradient3786"
     id="linearGradient3830"
     gradientUnits="userSpaceOnUse"
     gradientTransform="matrix(0.87272718,0,0,0.87272718,11.740542,-3.425334)"
     x1="-3.0607977"
     y1="27.258198"
     x2="-3.0607977"
     y2="7.2536583" /><linearGradient
     inkscape:collect="always"
     xlink:href="#linearGradient3833"
     id="linearGradient3840"
     x1="15"
     y1="6"
     x2="15"
     y2="35"
     gradientUnits="userSpaceOnUse"
     gradientTransform="matrix(0.50250076,0,0,0.50250076,-0.39272765,-0.87802807)" /><linearGradient
     inkscape:collect="always"
     xlink:href="#linearGradient3815"
     id="linearGradient3813"
     x1="5.090909"
     y1="11.636364"
     x2="16.727274"
     y2="11.636364"
     gradientUnits="userSpaceOnUse"
     gradientTransform="matrix(0,-0.67503155,0.67503155,0,10.326906,13.949401)" /><linearGradient
     inkscape:collect="always"
     xlink:href="#linearGradient3637"
     id="linearGradient4357"
     gradientUnits="userSpaceOnUse"
     gradientTransform="matrix(1.2773054,0,0,0.99345977,-15.856678,-1.2765949)"
     x1="8.7404661"
     y1="4.5355735"
     x2="8.7404661"
     y2="20.492353" /><linearGradient
     id="linearGradient3637"><stop
       id="stop3639"
       style="stop-color:#f0f0f0;stop-opacity:1"
       offset="0" /><stop
       id="stop3641"
       style="stop-color:#aaaaaa;stop-opacity:1"
       offset="1" /></linearGradient><linearGradient
     y2="20.492353"
     x2="8.7404661"
     y1="4.5355735"
     x1="8.7404661"
     gradientTransform="matrix(0.51000581,0,0,0.3966712,2.760123,1.968815)"
     gradientUnits="userSpaceOnUse"
     id="linearGradient4377"
     xlink:href="#linearGradient3637"
     inkscape:collect="always" /><linearGradient
     y2="20.492353"
     x2="8.7404661"
     y1="4.5355735"
     x1="8.7404661"
     gradientTransform="matrix(0.49826429,0,0,0.3875389,13.756898,1.3974987)"
     gradientUnits="userSpaceOnUse"
     id="linearGradient4377-6"
     xlink:href="#linearGradient3637-5"
     inkscape:collect="always" /><linearGradient
     id="linearGradient3637-5"><stop
       id="stop3639-0"
       style="stop-color:#f0f0f0;stop-opacity:1"
       offset="0" /><stop
       id="stop3641-8"
       style="stop-color:#aaaaaa;stop-opacity:1"
       offset="1" /></linearGradient></defs>
<path
   sodipodi:type="inkscape:offset"
   inkscape:radius="0.71068883"
   inkscape:original="M 4.65625 2.25 C 2.9476099 2.25 1.53125 3.6663599 1.53125 5.375 L 1.53125 19.34375 C 1.53125 21.05239 2.94761 22.46875 4.65625 22.46875 L 18.625 22.46875 C 20.33364 22.46875 21.75 21.05239 21.75 19.34375 L 21.75 5.375 C 21.75 3.66636 20.33364 2.25 18.625 2.25 L 4.65625 2.25 z "
   style="opacity:0.05;fill:#000000;fill-opacity:1;fill-rule:evenodd;stroke:none;display:inline"
   id="path3795"
   d="M 4.65625,1.53125 C 2.5548644,1.53125 0.8125,3.2736144 0.8125,5.375 l 0,13.96875 c 0,2.101386 1.7423644,3.84375 3.84375,3.84375 l 13.96875,0 c 2.101386,0 3.84375,-1.742364 3.84375,-3.84375 l 0,-13.96875 c 0,-2.1013856 -1.742364,-3.84375 -3.84375,-3.84375 l -13.96875,0 z"
   transform="matrix(0.69093857,0,0,0.69093857,-0.39272765,-0.87802807)" /><path
   sodipodi:type="inkscape:offset"
   inkscape:radius="0.61462623"
   inkscape:original="M 4.65625 2.875 C 3.2847759 2.875 2.15625 4.0035259 2.15625 5.375 L 2.15625 19.34375 C 2.15625 20.715224 3.2847761 21.84375 4.65625 21.84375 L 18.625 21.84375 C 19.996474 21.84375 21.125 20.715224 21.125 19.34375 L 21.125 5.375 C 21.125 4.0035261 19.996474 2.875 18.625 2.875 L 4.65625 2.875 z "
   style="opacity:0.07999998;fill:#000000;fill-opacity:1;fill-rule:evenodd;stroke:none;display:inline"
   id="path3791"
   d="m 4.65625,2.25 c -1.7086401,0 -3.125,1.4163599 -3.125,3.125 l 0,13.96875 c 0,1.70864 1.41636,3.125 3.125,3.125 l 13.96875,0 c 1.70864,0 3.125,-1.41636 3.125,-3.125 L 21.75,5.375 C 21.75,3.66636 20.33364,2.25 18.625,2.25 l -13.96875,0 z"
   transform="matrix(0.69093857,0,0,0.69093857,-0.39272765,-0.87802807)" /><path
   sodipodi:type="inkscape:offset"
   inkscape:radius="0.74928659"
   inkscape:original="M 4.65625 3.625 C 3.6892683 3.625 2.90625 4.4080183 2.90625 5.375 L 2.90625 19.34375 C 2.90625 20.310732 3.6892683 21.09375 4.65625 21.09375 L 18.625 21.09375 C 19.591982 21.09375 20.375 20.310732 20.375 19.34375 L 20.375 5.375 C 20.375 4.4080183 19.591982 3.625 18.625 3.625 L 4.65625 3.625 z "
   style="opacity:0.12000002;fill:#000000;fill-opacity:1;fill-rule:evenodd;stroke:none;display:inline"
   id="path3787"
   d="m 4.65625,2.875 c -1.3714741,0 -2.5,1.1285259 -2.5,2.5 l 0,13.96875 c 0,1.371474 1.1285261,2.5 2.5,2.5 l 13.96875,0 c 1.371474,0 2.5,-1.128526 2.5,-2.5 l 0,-13.96875 c 0,-1.3714739 -1.128526,-2.5 -2.5,-2.5 l -13.96875,0 z"
   transform="matrix(0.69093857,0,0,0.69093857,-0.39272765,-0.87802807)" /><rect
   ry="1.2060015"
   rx="1.2060015"
   y="1.6344776"
   x="1.6172757"
   height="12.060018"
   width="12.060018"
   id="rect3838"
   style="opacity:0.3;fill:#000000;fill-opacity:1;fill-rule:evenodd;stroke:none;display:inline" /><rect
   style="fill:url(#linearGradient3181);fill-opacity:1;fill-rule:evenodd;stroke:none;display:inline"
   id="rect3173"
   width="12.060018"
   height="12.060018"
   x="1.6172757"
   y="1.1319764"
   rx="1.2060015"
   ry="1.2060015" /><path
   style="fill:url(#linearGradient3814);fill-opacity:1;fill-rule:evenodd;stroke:none;display:inline"
   d="m 2.8264178,1.1319749 c -0.6681251,0 -1.2091425,0.5410175 -1.2091425,1.2091425 l 0,9.6417326 c 0,0.668125 0.5410174,1.209142 1.2091425,1.209142 l 9.6417342,0 c 0.668125,0 1.209141,-0.541017 1.209141,-1.209142 l 0,-9.6417326 c 0,-0.668125 -0.541016,-1.2091425 -1.209141,-1.2091425 l -9.6417342,0 z m -0.078516,1.0207047 c 0.02412,-0.00838 0.047038,0 0.078516,0 l 9.6574362,0 c 0.125912,0 0.188438,0.062528 0.188438,0.1884378 l 0,9.6574366 c 0,0.125912 -0.06252,0.188438 -0.188438,0.188438 l -9.6574362,0 c -0.1259107,0 -0.1884379,-0.06252 -0.1884379,-0.188438 l 0,-9.6574366 c 0,-0.094433 0.037562,-0.1632936 0.1099224,-0.1884378 z"
   id="rect3792"
   inkscape:connector-curvature="0" /><path
   style="fill:url(#linearGradient3101);fill-opacity:1;fill-rule:evenodd;stroke:none;display:inline"
   d="m 2.8232772,1.131976 c -0.6681255,0 -1.2060021,0.5378768 -1.2060021,1.2060017 l 0,9.6480143 c 0,0.668123 0.5378766,1.206 1.2060021,1.206 l 9.6480138,0 c 0.668125,0 1.206001,-0.537877 1.206001,-1.206 l 0,-9.6480143 c 0,-0.6681249 -0.537876,-1.2060017 -1.206001,-1.2060017 l -9.6480138,0 z m 0,0.6218447 9.6480138,0 c 0.331469,0 0.584158,0.2526873 0.584158,0.584157 l 0,9.6480143 c 0,0.331468 -0.252689,0.584156 -0.584158,0.584156 l -9.6480138,0 c -0.3314704,0 -0.5841576,-0.252688 -0.5841576,-0.584156 l 0,-9.6480143 c 0,-0.3314697 0.2526872,-0.584157 0.5841576,-0.584157 z"
   id="rect3050"
   inkscape:connector-curvature="0" /><path
   id="path3235"
   d="m 2.8232772,13.191992 c -0.6681255,0 -1.2060021,-0.537877 -1.2060021,-1.206 l 0,-0.603001 c 0,0.668124 0.5378766,1.206 1.2060021,1.206 l 9.6480138,0 c 0.668125,0 1.206001,-0.537876 1.206001,-1.206 l 0,0.603001 c 0,0.668123 -0.537876,1.206 -1.206001,1.206 l -9.6480138,0 z"
   style="opacity:0.8;fill:url(#linearGradient3845);fill-opacity:1;fill-rule:evenodd;stroke:none;display:inline"
   inkscape:connector-curvature="0" /><rect
   transform="matrix(0.60300087,0,0,0.60300087,1.0142743,0.52897524)"
   style="opacity:0.07999998;fill:#ffffff;fill-opacity:1;fill-rule:nonzero;stroke:none;display:inline;filter:url(#filter3194)"
   id="rect2410"
   width="11.666668"
   height="11.666668"
   x="5.1666651"
   y="5.1666651"
   rx="2"
   ry="2"
   clip-path="url(#clipPath2849)" /><path
   style="opacity:0.3;fill:url(#linearGradient3840);fill-opacity:1;fill-rule:evenodd;stroke:none;display:inline"
   d="m 2.7479021,2.1526796 c -0.07236,0.025144 -0.1099224,0.094004 -0.1099224,0.1884378 l 0,9.6574366 c 0,0.125912 0.062528,0.188438 0.1884378,0.188438 l 9.6574355,0 c 0.125912,0 0.188438,-0.06252 0.188438,-0.188438 l 0,-9.6574366 c 0,-0.1259107 -0.06252,-0.1884378 -0.188438,-0.1884378 l -9.6574355,0 c -0.031478,0 -0.054395,-0.00838 -0.078516,0 z m 0.3768755,0.4867974 9.0450134,0 0,9.045014 -9.0450134,0 0,-9.045014 z"
   id="path3820"
   inkscape:connector-curvature="0" /></svg>