<?xml version="1.0" encoding="UTF-8" standalone="no"?>
<!-- Generator: Adobe Illustrator 13.0.2, SVG Export Plug-In . SVG Version: 6.00 Build 14948)  -->

<svg
   xmlns:dc="http://purl.org/dc/elements/1.1/"
   xmlns:cc="http://creativecommons.org/ns#"
   xmlns:rdf="http://www.w3.org/1999/02/22-rdf-syntax-ns#"
   xmlns:svg="http://www.w3.org/2000/svg"
   xmlns="http://www.w3.org/2000/svg"
   xmlns:xlink="http://www.w3.org/1999/xlink"
   xmlns:sodipodi="http://sodipodi.sourceforge.net/DTD/sodipodi-0.dtd"
   xmlns:inkscape="http://www.inkscape.org/namespaces/inkscape"
   id="Foreground"
   enable-background="new 0 0 16 16"
   xml:space="preserve"
   height="22"
   viewBox="0 0 16 16"
   width="22"
   version="1.0"
   y="0px"
   x="0px"
   inkscape:version="0.48.3.1 r9886"
   sodipodi:docname="radiobutton.svg"><sodipodi:namedview
   pagecolor="#ffffff"
   bordercolor="#666666"
   borderopacity="1"
   objecttolerance="10"
   gridtolerance="10"
   guidetolerance="10"
   inkscape:pageopacity="0"
   inkscape:pageshadow="2"
   inkscape:window-width="1600"
   inkscape:window-height="845"
   id="namedview20"
   showgrid="false"
   inkscape:zoom="39.594979"
   inkscape:cx="20.015165"
   inkscape:cy="16.320034"
   inkscape:window-x="0"
   inkscape:window-y="0"
   inkscape:window-maximized="1"
   inkscape:current-layer="Foreground"><inkscape:grid
     type="xygrid"
     id="grid3066"
     empspacing="8"
     visible="true"
     enabled="true"
     snapvisiblegridlinesonly="true" /></sodipodi:namedview><metadata
   id="metadata2399"><rdf:RDF><cc:Work
       rdf:about=""><dc:format>image/svg+xml</dc:format><dc:type
         rdf:resource="http://purl.org/dc/dcmitype/StillImage" /><dc:title /></cc:Work></rdf:RDF></metadata><defs
   id="defs2397"><linearGradient
     id="linearGradient3815"><stop
       id="stop3817"
       offset="0"
       style="stop-color:#e6e6e6;stop-opacity:1;" /><stop
       id="stop3819"
       offset="1"
       style="stop-color:#ffffff;stop-opacity:1;" /></linearGradient><linearGradient
     id="linearGradient3833"><stop
       style="stop-color:#000000;stop-opacity:1;"
       offset="0"
       id="stop3836" /><stop
       style="stop-color:#000000;stop-opacity:0;"
       offset="1"
       id="stop3838" /></linearGradient><linearGradient
     id="linearGradient3808"><stop
       style="stop-color:#d2d2d2;stop-opacity:1;"
       offset="0"
       id="stop3810" /><stop
       style="stop-color:#f0f0f0;stop-opacity:1;"
       offset="1"
       id="stop3812" /></linearGradient><linearGradient
     id="linearGradient3786"><stop
       id="stop3788"
       offset="0"
       style="stop-color:#1e1e1e;stop-opacity:1;" /><stop
       id="stop3790"
       offset="1"
       style="stop-color:#505050;stop-opacity:1;" /></linearGradient><filter
     id="filter16494-4"
     width="1.4198"
     y="-0.20904"
     x="-0.20990001"
     height="1.4181"
     color-interpolation-filters="sRGB"><feGaussianBlur
       id="feGaussianBlur16496-8"
       stdDeviation="1.3282637" /></filter><radialGradient
     id="radialGradient16504-1"
     gradientUnits="userSpaceOnUse"
     cy="5.8190999"
     cx="7.6582999"
     gradientTransform="matrix(1.0474,0,0,1.0517,-0.36326,-0.42032)"
     r="8.6928997"><stop
       id="stop16500-8"
       style="stop-color:#7b7b7b"
       offset="0" /><stop
       id="stop16502-0"
       style="stop-color:#101010"
       offset="1" /></radialGradient><filter
     id="filter16524-9"
     width="1.426"
     y="-0.21306001"
     x="-0.21298"
     height="1.4261"
     color-interpolation-filters="sRGB"><feGaussianBlur
       id="feGaussianBlur16526-0"
       stdDeviation="0.71020915" /></filter><clipPath
     clipPathUnits="userSpaceOnUse"
     id="clipPath2849"><rect
       ry="2"
       rx="2"
       y="1"
       x="1"
       height="20"
       width="20"
       id="rect2851"
       style="fill:#ffffff;fill-opacity:1;fill-rule:evenodd;stroke:none;display:inline" /></clipPath><linearGradient
     gradientTransform="matrix(0.87272718,0,0,0.87272718,29.415724,0.47739824)"
     inkscape:collect="always"
     xlink:href="#linearGradient3831"
     id="linearGradient3845"
     x1="11"
     y1="19.5"
     x2="21"
     y2="19.5"
     gradientUnits="userSpaceOnUse"
     spreadMethod="reflect" /><linearGradient
     id="linearGradient3831"><stop
       style="stop-color:#ffffff;stop-opacity:1;"
       offset="0"
       id="stop3833" /><stop
       id="stop3821"
       offset="0.75"
       style="stop-color:#ffffff;stop-opacity:0.49803922;" /><stop
       style="stop-color:#ffffff;stop-opacity:0;"
       offset="1"
       id="stop3835" /></linearGradient><linearGradient
     gradientTransform="matrix(0.87272718,0,0,0.87272718,29.415724,0.47739824)"
     y2="16"
     x2="10"
     y1="1"
     x1="10"
     gradientUnits="userSpaceOnUse"
     id="linearGradient3101"
     xlink:href="#linearGradient3823"
     inkscape:collect="always" /><linearGradient
     id="linearGradient3823"><stop
       id="stop3825"
       offset="0"
       style="stop-color:#ffffff;stop-opacity:1;" /><stop
       id="stop3829"
       offset="1"
       style="stop-color:#ffffff;stop-opacity:0;" /></linearGradient><linearGradient
     inkscape:collect="always"
     xlink:href="#linearGradient3786"
     id="linearGradient3181"
     x1="-3.0607977"
     y1="27.258198"
     x2="-3.0607977"
     y2="7.2536583"
     gradientUnits="userSpaceOnUse"
     gradientTransform="matrix(0.87272718,0,0,0.87272718,39.119902,-4.9843038)" /><linearGradient
     id="linearGradient3257"><stop
       style="stop-color:#a50000;stop-opacity:1;"
       offset="0"
       id="stop3259" /><stop
       style="stop-color:#e73800;stop-opacity:1;"
       offset="1"
       id="stop3261" /></linearGradient><linearGradient
     inkscape:collect="always"
     xlink:href="#linearGradient3786"
     id="linearGradient3796"
     gradientUnits="userSpaceOnUse"
     gradientTransform="matrix(0.87272718,0,0,0.87272718,11.740542,-3.425334)"
     x1="-3.0607977"
     y1="27.258198"
     x2="-3.0607977"
     y2="7.2536583" /><linearGradient
     inkscape:collect="always"
     xlink:href="#linearGradient3786"
     id="linearGradient3800"
     gradientUnits="userSpaceOnUse"
     gradientTransform="matrix(0.87272718,0,0,0.87272718,11.740542,-3.425334)"
     x1="-3.0607977"
     y1="27.258198"
     x2="-3.0607977"
     y2="7.2536583" /><linearGradient
     inkscape:collect="always"
     xlink:href="#linearGradient3786"
     id="linearGradient3805"
     gradientUnits="userSpaceOnUse"
     gradientTransform="matrix(1.1999999,0,0,1.1999999,16.143245,-4.7098343)"
     x1="-3.0607977"
     y1="27.258198"
     x2="-3.0607977"
     y2="7.2536583" /><linearGradient
     inkscape:collect="always"
     xlink:href="#linearGradient3808"
     id="linearGradient3814"
     gradientUnits="userSpaceOnUse"
     gradientTransform="matrix(0.87272719,0,0,0.87272719,39.119902,-4.9843012)"
     x1="-3.0607977"
     y1="27.258198"
     x2="-3.0607977"
     y2="7.2536583" /><linearGradient
     inkscape:collect="always"
     xlink:href="#linearGradient3786"
     id="linearGradient3818"
     gradientUnits="userSpaceOnUse"
     gradientTransform="matrix(0.87272718,0,0,0.87272718,11.740542,-3.425334)"
     x1="-3.0607977"
     y1="27.258198"
     x2="-3.0607977"
     y2="7.2536583" /><linearGradient
     inkscape:collect="always"
     xlink:href="#linearGradient3786"
     id="linearGradient3822"
     gradientUnits="userSpaceOnUse"
     gradientTransform="matrix(1.1999999,0,0,1.1999999,16.143245,-4.7098343)"
     x1="-3.0607977"
     y1="27.258198"
     x2="-3.0607977"
     y2="7.2536583" /><linearGradient
     inkscape:collect="always"
     xlink:href="#linearGradient3786"
     id="linearGradient3826"
     gradientUnits="userSpaceOnUse"
     gradientTransform="matrix(0.87272718,0,0,0.87272718,11.740542,-3.425334)"
     x1="-3.0607977"
     y1="27.258198"
     x2="-3.0607977"
     y2="7.2536583" /><linearGradient
     inkscape:collect="always"
     xlink:href="#linearGradient3786"
     id="linearGradient3830"
     gradientUnits="userSpaceOnUse"
     gradientTransform="matrix(0.87272718,0,0,0.87272718,11.740542,-3.425334)"
     x1="-3.0607977"
     y1="27.258198"
     x2="-3.0607977"
     y2="7.2536583" /><linearGradient
     inkscape:collect="always"
     xlink:href="#linearGradient3833"
     id="linearGradient3840"
     x1="15"
     y1="6"
     x2="15"
     y2="35"
     gradientUnits="userSpaceOnUse"
     gradientTransform="matrix(0.72727272,0,0,0.72727272,27.379361,-1.5589672)" /><linearGradient
     inkscape:collect="always"
     xlink:href="#linearGradient3815"
     id="linearGradient3813"
     x1="5.090909"
     y1="11.636364"
     x2="16.727274"
     y2="11.636364"
     gradientUnits="userSpaceOnUse"
     gradientTransform="matrix(0,-1,1,0,27.379361,21.71376)" /><linearGradient
     inkscape:collect="always"
     xlink:href="#linearGradient3786"
     id="linearGradient3819"
     x1="43.660519"
     y1="30.258596"
     x2="43.736599"
     y2="5.6744156"
     gradientUnits="userSpaceOnUse" /><linearGradient
     inkscape:collect="always"
     xlink:href="#linearGradient3815"
     id="linearGradient3832"
     x1="-29.789177"
     y1="-3"
     x2="-16.210823"
     y2="-3"
     gradientUnits="userSpaceOnUse" /><linearGradient
     inkscape:collect="always"
     xlink:href="#linearGradient3815-8"
     id="linearGradient3832-8"
     x1="-29.789177"
     y1="-3"
     x2="-16.210823"
     y2="-3"
     gradientUnits="userSpaceOnUse" /><linearGradient
     id="linearGradient3815-8"><stop
       id="stop3817-4"
       offset="0"
       style="stop-color:#e6e6e6;stop-opacity:1;" /><stop
       id="stop3819-4"
       offset="1"
       style="stop-color:#ffffff;stop-opacity:1;" /></linearGradient><linearGradient
     inkscape:collect="always"
     xlink:href="#linearGradient3786-8"
     id="linearGradient3819-0"
     x1="31"
     y1="18"
     x2="57"
     y2="18"
     gradientUnits="userSpaceOnUse" /><linearGradient
     id="linearGradient3786-8"><stop
       id="stop3788-5"
       offset="0"
       style="stop-color:#1e1e1e;stop-opacity:1;" /><stop
       id="stop3790-2"
       offset="1"
       style="stop-color:#505050;stop-opacity:1;" /></linearGradient><linearGradient
     y2="18"
     x2="57"
     y1="18"
     x1="31"
     gradientUnits="userSpaceOnUse"
     id="linearGradient3883-9"
     xlink:href="#linearGradient3786-8-5"
     inkscape:collect="always" /><linearGradient
     id="linearGradient3786-8-5"><stop
       id="stop3788-5-9"
       offset="0"
       style="stop-color:#1e1e1e;stop-opacity:1;" /><stop
       id="stop3790-2-3"
       offset="1"
       style="stop-color:#505050;stop-opacity:1;" /></linearGradient><linearGradient
     inkscape:collect="always"
     xlink:href="#linearGradient3833"
     id="linearGradient3945"
     gradientUnits="userSpaceOnUse"
     gradientTransform="matrix(0.49130395,0,0,0.49130395,-13.622232,-0.83720402)"
     x1="43.593533"
     y1="5.1385207"
     x2="42.798782"
     y2="37.292217" /><linearGradient
     inkscape:collect="always"
     xlink:href="#linearGradient3833-4"
     id="linearGradient3945-8"
     gradientUnits="userSpaceOnUse"
     gradientTransform="matrix(0.72727272,0,0,0.72727272,-45.891723,-1.551981)"
     x1="31"
     y1="18"
     x2="57"
     y2="18" /><linearGradient
     id="linearGradient3833-4"><stop
       style="stop-color:#000000;stop-opacity:1;"
       offset="0"
       id="stop3836-2" /><stop
       style="stop-color:#000000;stop-opacity:0;"
       offset="1"
       id="stop3838-8" /></linearGradient><linearGradient
     y2="26.346935"
     x2="43.214714"
     y1="5.4373941"
     x1="43.376953"
     gradientTransform="matrix(0.53180969,0,0,0.53180969,-15.404862,-1.5658134)"
     gradientUnits="userSpaceOnUse"
     id="linearGradient3962"
     xlink:href="#linearGradient3831"
     inkscape:collect="always" /><linearGradient
     inkscape:collect="always"
     xlink:href="#linearGradient3833-7"
     id="linearGradient3945-4"
     gradientUnits="userSpaceOnUse"
     gradientTransform="matrix(0.72727272,0,0,0.72727272,-20.37042,-1.445676)"
     x1="31"
     y1="18"
     x2="57"
     y2="18" /><linearGradient
     id="linearGradient3833-7"><stop
       style="stop-color:#000000;stop-opacity:1;"
       offset="0"
       id="stop3836-1" /><stop
       style="stop-color:#000000;stop-opacity:0;"
       offset="1"
       id="stop3838-0" /></linearGradient></defs>
<path
   sodipodi:type="arc"
   style="fill:url(#linearGradient3819);fill-opacity:1;fill-rule:nonzero;stroke:none"
   id="path3042"
   sodipodi:cx="44"
   sodipodi:cy="18"
   sodipodi:rx="13"
   sodipodi:ry="13"
   d="m 57,18 a 13,13 0 1 1 -26,0 13,13 0 1 1 26,0 z"
   transform="matrix(0.49130395,0,0,0.49130395,-13.61765,-0.84319574)" /><path
   sodipodi:type="arc"
   style="opacity:0.4;fill:#000000;fill-opacity:1;fill-rule:nonzero;stroke:none"
   id="path3822-6"
   sodipodi:cx="-23"
   sodipodi:cy="-3"
   sodipodi:rx="6.7891774"
   sodipodi:ry="6.7891774"
   d="m -16.210823,-3 a 6.7891774,6.7891774 0 1 1 -13.578354,0 6.7891774,6.7891774 0 1 1 13.578354,0 z"
   transform="matrix(0.49130395,0,0,0.49130395,19.530092,9.9020291)" /><path
   sodipodi:type="arc"
   style="fill:url(#linearGradient3832);fill-opacity:1;fill-rule:nonzero;stroke:none"
   id="path3822"
   sodipodi:cx="-23"
   sodipodi:cy="-3"
   sodipodi:rx="6.7891774"
   sodipodi:ry="6.7891774"
   d="m -16.210823,-3 a 6.7891774,6.7891774 0 1 1 -13.578354,0 6.7891774,6.7891774 0 1 1 13.578354,0 z"
   transform="matrix(0.49130395,0,0,0.49130395,19.299715,9.4741875)" /><path
   style="opacity:0.35;fill:url(#linearGradient3945);fill-opacity:1;fill-rule:nonzero;stroke:none"
   clip-path="none"
   d="m 7.9997239,1.613324 c -3.5274155,0 -6.3869509,2.8595355 -6.3869509,6.3869511 0,3.5274169 2.8595354,6.3869519 6.3869509,6.3869519 3.5274161,0 6.3869521,-2.859535 6.3869521,-6.3869519 0,-3.5274156 -2.859536,-6.3869511 -6.3869521,-6.3869511 z m 0,0.7523091 c 3.1184511,0 5.6346421,2.5161908 5.6346421,5.634642 0,3.1184519 -2.516191,5.6499959 -5.6346421,5.6499959 -3.1184512,0 -5.649995,-2.531544 -5.649995,-5.6499959 0,-3.1184512 2.5315438,-5.634642 5.649995,-5.634642 z"
   id="path3042-6"
   inkscape:connector-curvature="0" /><path
   style="fill:url(#linearGradient3962);fill-opacity:1;fill-rule:nonzero;stroke:none"
   clip-path="none"
   d="m 7.9997239,1.0867491 c -3.8182345,0 -6.9135249,3.095291 -6.9135249,6.9135253 0,3.8182366 3.0952904,6.9135276 6.9135249,6.9135276 3.8182351,0 6.9135251,-3.095291 6.9135251,-6.9135276 0,-3.8182343 -3.09529,-6.9135253 -6.9135251,-6.9135253 z m 0,0.8143336 c 3.3755541,0 6.0991921,2.723639 6.0991921,6.0991917 0,3.3755546 -2.723638,6.1158126 -6.0991921,6.1158126 -3.3755532,0 -6.1158107,-2.740258 -6.1158107,-6.1158126 0,-3.3755527 2.7402575,-6.0991917 6.1158107,-6.0991917 z"
   id="path3042-6-9"
   inkscape:connector-curvature="0" /><path
   style="opacity:0.07900002;fill:#000000;fill-opacity:1;fill-rule:nonzero;stroke:none"
   clip-path="none"
   d="m 7.9997233,0.75764012 c -3.999996,0 -7.24263441,3.24263798 -7.24263441,7.24263498 0,3.9999989 3.24263841,7.2426359 7.24263441,7.2426359 3.9999977,0 7.2426367,-3.242637 7.2426367,-7.2426359 0,-3.999997 -3.242639,-7.24263498 -7.2426367,-7.24263498 z m 0,0.85309878 c 3.5362427,0 6.3895367,2.8532942 6.3895367,6.3895362 0,3.5362429 -2.853294,6.4069479 -6.3895367,6.4069479 -3.5362413,0 -6.4069458,-2.870705 -6.4069458,-6.4069479 0,-3.536242 2.8707045,-6.3895362 6.4069458,-6.3895362 z"
   id="path3042-6-6"
   inkscape:connector-curvature="0" /><path
   style="opacity:0.05;fill:#000000;fill-opacity:1;fill-rule:nonzero;stroke:none"
   clip-path="none"
   d="m 7.9997233,0.42853087 c -4.1817578,0 -7.57174354,3.38998513 -7.57174354,7.57174423 0,4.1817609 3.38998574,7.5717449 7.57174354,7.5717449 4.1817597,0 7.5717457,-3.389984 7.5717457,-7.5717449 0,-4.1817591 -3.389986,-7.57174423 -7.5717457,-7.57174423 z m 0,0.89186413 c 3.6969317,0 6.6798817,2.9829493 6.6798817,6.6798801 0,3.6969319 -2.98295,6.6980819 -6.6798817,6.6980819 -3.6969297,0 -6.6980809,-3.00115 -6.6980809,-6.6980819 0,-3.6969308 3.0011512,-6.6798801 6.6980809,-6.6798801 z"
   id="path3042-6-6-8"
   inkscape:connector-curvature="0" /><path
   style="opacity:0.39781021;fill:#ffffff;fill-opacity:1;fill-rule:nonzero;stroke:none"
   clip-path="none"
   d="m 7.9997233,1.0801339 c -3.8218875,0 -6.9201406,3.0982525 -6.9201406,6.9201412 0,3.8218909 3.0982531,6.9201419 6.9201406,6.9201419 3.8218897,0 6.9201427,-3.098251 6.9201427,-6.9201419 0,-3.8218887 -3.098253,-6.9201412 -6.9201427,-6.9201412 z m 0,0.8151128 c 3.3787837,0 6.1050297,2.7262451 6.1050297,6.1050284 0,3.3787839 -2.726246,6.1216639 -6.1050297,6.1216639 -3.3787823,0 -6.1216629,-2.74288 -6.1216629,-6.1216639 0,-3.3787833 2.7428806,-6.1050284 6.1216629,-6.1050284 z"
   id="path3042-6-6-8-1"
   inkscape:connector-curvature="0" /></svg>